<?xml version="1.0" standalone="no"?>
<!DOCTYPE svg PUBLIC "-//W3C//DTD SVG 20010904//EN"
 "http://www.w3.org/TR/2001/REC-SVG-20010904/DTD/svg10.dtd">
<svg version="1.0" xmlns="http://www.w3.org/2000/svg"
 width="128.000000pt" height="128.000000pt" viewBox="0 0 128.000000 128.000000"
 preserveAspectRatio="xMidYMid meet">
<metadata>
Created by potrace 1.11, written by Peter Selinger 2001-2013
</metadata>
<g transform="translate(0.000000,128.000000) scale(0.100000,-0.100000)"
fill="#000000" stroke="none">
<path d="M285 1103 c-68 -23 -145 -101 -167 -168 -20 -62 -17 -162 7 -230 36
-103 126 -211 300 -360 87 -74 193 -184 201 -207 7 -24 25 -23 31 2 3 11 9 20
14 20 5 0 9 4 9 10 0 11 85 96 171 170 65 56 202 191 229 226 118 150 131 342
30 456 -105 120 -296 127 -405 16 -23 -24 -47 -52 -54 -63 -10 -16 -13 -17
-18 -6 -12 31 -87 101 -127 120 -59 29 -158 35 -221 14z"/>
</g>
</svg>
